<?xml version="1.0" encoding="UTF-8"?>
<svg version="1.1" viewBox="0 0 2000 2000" width="500" height="500" xmlns="http://www.w3.org/2000/svg">
<path transform="translate(394,185)" d="m0 0 27 2 46 7 13 4 7 6 14 21 8 14 4 10-1 5-9 10-8 8-8 6-3-1h-10l-3 2-6-1-2-4-15-6-17-9-5-5-3-5-20-9-9-1-5 3-8 8-13 17-10 17-8 19-7 30-5 20v6l7 1 14-8 13-4 7-1h15l18 4 14 4h13l30-15 12-3 7-1h21l20 4 12 4 17 8 7 4 5-1 20-12 25-12 21-7 25-6 22-3h79l20 2 26 6 26 9 29 14 16 10 12 9 12 11 8 7 9 9 9 11 10 13 11 18 9 16 9 20 7 21 5 22 3 19 1 12v34l-2 19-5 25-6 20-10 25-11 21-9 14-8 11-12 14-11 12-12 11-14 11-18 12-16 9-15 7-19 7-26 7-27 4-23 1h-39l-27-2-25-5-27-8-19-8-17-9-19-12-12-9-13-11-12-11h-7l-10 3-6 1h-18l-17-2-15-5-21-11-11-8-12-11-10-11-12-17-3-5-6 1-26 12-16 7h-5l-7-7-7-14-5-17 1-5 8-5 28-13 15-6h3l-2-14v-31l4-20 7-19 9-15 8-10 10-10 16-10 15-5 15-3h20l1-5 7-18 1-2-20 3-15 5-24 11-13 5-18 3-18 1-21-2-36-6-21-5-26-8-29-11-18-8-13-8-7-8-2-6v-9l4-10 5-9 12-17 15-27 13-22 13-18 11-14 12-13 15-15 7-8 9-9 8-7 7-7h2v-2h2v-2h2v-2h2l2-4 7-7 7-8 9-10 2-3h2v-2h2l2-4 10-7 4-2zm2 7-10 4-6 4v2l13 5 12 3 10 4 17 3 12 5 4-1 5-5 10-3 8-3 4-3-2-4-15-4-34-6-8-1zm-22 16-8 7-11 11-7 8-23 23-8 7-7 10-8 17-4 13-3 16v3h-2l-3-11-3-12h-2l-12 23-6 16-4 16-2 14-1 1-2-8v-17l2-14h-2l-13 24-13 22-8 12-8 14v10l5 9 7 6 2 1h6l9-4h9l1-3 1-8 4-8 7-6 12-6 18-6 14-5 11-8 4-5 5-10 2-9 1-23 2-10 12-31 8-20 8-12 10-11 9-11 3-5-1-7-7-11zm111 4 1 8 9 24 1 4v10l-3 5v2l5-2 5-4 4-7v-7l-4-11-7-13-4-7-3-2zm-94 2 2 6 4 6 7 6 15 6 6 4h3l-2-12-6-7-17-6-8-3zm68 1-2 1 1 7 3 12 1 11v14l-3 6 4 2 6-1 5-6 1-8-2-21-3-7-5-8-3-2zm17 1-1 1 1 14 2 13v18l-3 6v3h6l8-5 2-5v-8l-7-27-4-9zm-45 6 5 10 4 12 4 5 1 3-4 2v3l12 5 3-1v-8l-2-15-3-7-8-5-8-4zm65 126-16 4-16 8-1 3 16 7 3 3h2l2 4 6 9 8 16 10 19 9 10 11 8 16 8 13 7 6 5h3l4-24v-13l-8-11-22-24 11 6 12 9 6 5h2l-1-17-5-21-13-6-22-10-13-4-5-1zm-112 10-12 3-9 5-6 4 1 5 5 6 9 6 10 3h7l5-1-1 4-7 2h-14l-9-3-8-6-6-8-16 12 2 2 11 4 10 7 20 18 10 6 9 2h8l25-5h24l11-6 3-2 5-1h13l9 3 4 2-3-10-8-17-8-10-8-7-14-6-15-2-16-1-19-7-14-2zm-60 22-9 6-16 8-20 7-10 7-8 9-1 4 9-3 23-8 14-8 11-9 7-8 1-5zm384 3-10 3-6 4-7 8-6 12 1 3 8-15 7-6 9-4 5-1h12l12 4 11 7 13 11 11 12 5 8-6 2-12 6 3 1 25-12-3-1-4 1-1-5-11-13-8-8-14-10-11-5-12-2zm-110 1-9 16-6 15-6 22-5 24-4 34v12l5-2 16-7v-67l4-22 6-21zm276 0m-4 1m-2 1m-2 1m17 2-19 9-31 14-15 7-20 9-15 7-21 10-11 5-6 2 1 4 5-1 39-18 33-15 60-27 4-2-2-4zm-27 2m-2 1m-2 1m-191 1 1 2zm188 0m-2 1m-187 1 1 3zm229 0-8 4-34 15-31 14-60 27-8 3 1 5 7 11 2 1-2-5v-3l42-19 56-25 36-16h2l2 11h1v-8l-4-14zm-240 3-8 11-6 10-5 13-4 16-1 10v21l3 19 6 22 7 17 7 12 9 13 13 15 12 10 11 7 11 5 17 6 11 1-4-3-7-4-16-11-14-14-9-11-10-14-11-19-8-18-7-21-4-20-1-10v-17l3-22 6-22zm10 0 1 2zm-1 3-3 7-2 9-1 11v22l3 19 6 23 7 19 11 23 12 19 11 13 14 14 13 9 12 6 5 2h5l-3-2-12-5-11-7-13-12-7-7-10-13-10-15-10-19-8-20-7-24-4-23v-33l3-13zm168 3m-505 3-18 6-24 13-15 6-14 4 4 4 16 9 23 10 36 12 21 6 14 2h27l18-3 16-5 17-8 12-9 9-8 1-7-4-4-11-3h-10l-20 4-26 8-15 3h-27l-9-1v-2h9l14-3 22-7v-2l-10-3-13-7-15-10-12-5zm357 5 1 3zm20 3-5 5-6 12-4 14-1 8v12l2 14 5 17 8 16 8 11 9 10 11 8 17 8 6 2 4-1h-2v-2l-13-8-7-6-9-11-9-13-8-14-7-19-4-20v-16l3-17 3-10zm97 3m98 0m-100 1m98 0m-101 1m99 0-1 2 3-1zm-102 1-4 3 5-1 1-2zm99 1m-2 1m-146 1-8 6-5 9-1 5v12l4 16 8 16 5 7h2l2 4 10 7 8 2 9-3 6-7 1-5-4 5-5 5-8 1-9-4-9-8-8-13-5-12-2-7-1-16 2-9 6-7 2-1h7 3l-4-3zm144 0m-2 1m-2 1m-2 1m-3 1m-1 1m-3 1m-2 1m-390 1 2 4 12 10 10 5 22 6 6 4 2-1-9-10-10-8-14-7-16-3zm388 0m-2 1m-2 1m-3 1m-2 1m-103 1-1 2 3-1zm101 0m-2 1m-102 1-1 2 3-1zm99 0m-2 1m-99 1m97 0m-98 1m96 0m-97 1-1 4 2-4zm94 0m-2 1-2 2 4-1zm-4 2m-3 1-4 3 5-1 2-2zm-6 3m-3 1-6 3 3 1 6-3zm-9 4-26 12-18 8 3 1 29-13 15-7zm-305 10-8 21v3l8 4h2l7-21-1-5-5-2zm288 1-1 5 5 21 2 16v17l-3 17-5 12-9 10-10 5-11 3v1h8l13-5 8-6 7-9 5-12 2-9 1-9v-15l-2-18-5-19zm-38 9m8 1m-6 1v2l2-1zm2 0 4 1zm16 13 1 2zm-314 6-10 4-8 7-6 8-4 8 1 3 7-13 7-7 12-5h14l15 4 11 6 13 10 12 12 5 7 6-1-2-5-7-7-1-2h-2l-2-4-11-9-10-7-10-5-15-4zm-49 15 1 2zm-1 3-5 16-1 10v18l2 16 5 20 6 17 9 21 10 18 13 18 10 11 7 8 12 10 14 9 10 5 3-1-16-9-10-8-12-11-2-3h-2l-2-4-9-10-11-16-9-16-8-16-8-21-5-19-3-17v-29l3-13zm182 1m22 0-35 16-18 8-45 21-13 5-1 5 1 2h3l3-3 24-11 28-13 39-18 19-9v-3zm-24 1m-192 2-10 18-6 17-3 16v26l3 17 6 21 8 18 9 16 9 12 9 10 10 10 18 12 19 9 14 4 16 2v-2l-16-8-11-6-13-10-12-11-9-11-10-13-13-20-11-23-6-19-4-18-1-10v-22l3-21 2-8v-6zm219 4-37 17-16 7-15 7-33 15-9 4-2 1v5l5 8 1-3 6-2 38-18 28-13 39-18 2-3-4-7zm-186 4 1 3zm-1 3 1 3zm-1 3 1 3zm126 0m-5 2m-3 1m-2 1m-4 2m-2 1m-45 0-6 2-5 5-3 7v17l5 17 7 13 11 12 8 6 7 3 11 1 4-4-9 1-8-3-11-8-9-11-8-15-3-10-1-15 2-9 4-5 8-1 7-1v-1zm42 1m-2 1m-2 1m-2 1-2 2 4-1zm-5 2-1 2 4-2zm103 0m-3 1m-104 1-8 4 3 1 8-4zm102 0m-2 1m-2 1m-3 1m-2 1m-103 1m101 0m-102 1m100 0m-102 1m100 0m-102 1-1 2 3-1zm99 0m-2 1m-99 1m97 0m-98 1m96 0m-97 1-2 4 3-2zm95 0m-3 1m-2 1m-2 1m-3 1-4 3 5-1 2-2zm149 0m2 1m2 1m-159 1m-2 1m166 0m-169 1-4 3 5-1 2-2zm-7 3-40 18-8 3h-5v2l9-1 21-9 26-12zm189 0m-202 11 1 7 6 21 2 11 1 14-2 19-5 14-6 8-7 6-12 4h-10l-7-2-4 1 13 4h10l13-5 8-6 7-8 4-9 3-14v-27l-4-21-5-16zm-45 4 2 4 2 1-1-4zm4 5m232 6m3 1m5 1m3 1 3 2 2-1zm-220 5-3 9v3l4-6v-6zm-5 12m-164 13-46 20-4 1-1 3 2 3 5-2 40-18 7-3v-4zm-36 5m37 3-30 13-14 6-5 2 4 11 4-2 43-19 4-2-1-6-2-3zm-52 6m59 16-10 5-17 7-11 5 3 1 15-6 25-11v-1zm-50 11m1 1 1 2zm1 2m1 2m1 1 1 2zm5 1-4 2 3 1 4-3z" fill="#030103"/>
<path transform="translate(880,433)" d="m0 0h5l10 15 10 18 8 19 6 19 5 24 1 11v43l-3 22-6 23-8 22-12 23-10 15-10 13-10 11-7 8-11 10-13 10-12 8-15 9-17 8-19 7-21 5-22 3-11 1h-22l-26-3-20-4-19-6-12-5-16-8-15-9-20-14-13-10-3-2 1-4 8-7 10-12 9-17 6-18 3-17 1-9v-12l-3-22-5-21v-5l12-6 25-11 15-7 4 2 10 16 8 11 13 15 13 12 15 11 15 8 17 5 13 2h16l10-2 16-8 12-9 1-2h2l2-4 7-10 6-13 5-17 3-20v-26l-3-20-5-21-5-16 5-4 24-10 39-17z" fill="#84179A"/>
<path transform="translate(741,315)" d="m0 0h21l20 2 26 6 26 9 29 14 16 10 12 9 12 11 8 7 9 9 9 11 10 13 11 18 9 16 9 20 7 21 5 22 3 19 1 12v34l-2 19-5 25-6 20-10 25-11 21-9 14-8 11-12 14-11 12-12 11-14 11-18 12-16 9-15 7-19 7-26 7-27 4h-10l4-3 6-3 15-4 23-8 19-9 17-10 12-8 16-12 11-10 8-7 12-14 8-10 12-17 13-24 8-17 7-21 5-21 3-20v-54l-3-22-7-27-9-25-10-20-12-20-10-13-8-12-7-10-13-8-9-8-18-13-16-10-23-12-24-9-37-9-5-1z" fill="#84179A"/>
<path transform="translate(686,343)" d="m0 0h39l25 3 20 5 24 8 20 10 17 11 9 7 5 4-1 4-15 7-28 13-11 5h-5l-10-11-7-8-14-14-14-10-16-9-16-6-9-2h-25l-9 2-11 5-11 7-9 9-9 14-6 14-6 22-1 6v31l3 19 2 10v5l-4 3h4l1-2v3l-11 5-12 5-19 9-16 7-1-2 6-3-4 1h-7l-11-12-10-9-18-12-5-3 2-9 5-15 11 7 10 8 12 12 9 14 3 10 10-4 24-13 5-1-4-21-1-25 1-22 5-30 6-20 4-14h-12l4-4 19-9 23-8 23-5z" fill="#831699"/>
<path transform="translate(760,826)" d="m0 0 7 1 3 4-1 14-6 36-7 41-2 2-13-1-5-6-13-44-6-21-2-4-8 45-1 9v23l-7-1-3-3v-11l9-54 3-16v-4l-3-1-9 3-4 5-1 6 4 4 2 1-1 5-5 3-9-1-5-4-4 1-5 3h-8l-3-1 1-5 3-7-1-9-2-3-8-1-7 3-5 6-2 5-1 7 2 8 4 4 8 3-1 4-12 4-6 4-5 7-1 6 3 9 5 4 5 2 6 1h9l12-2 9-4 9-5-1 6-7 7-10 5-13 4-16 1-11-2-10-5-6-7-2-6v-9l4-9 5-5 8-5 4-1-8-10-3-10 2-9 6-9 8-6 7-3 5-1h12l10 3 7 6 2 3 4-2 8-6 8-3 8-1h19l5 2 4 8 8 27 9 32 2 7 3-13 6-36v-27z" fill="#84179A"/>
<path transform="translate(950,826)" d="m0 0 9 1 2 3-1 14-3 19-9 52-1 8-6 1-9-1-4-5-5-14-16-55-1-3-8 48-1 8v15l1 7-5 1-5-2-1-1v-10l5-33 7-38v-6l-10 2-5 4-2 4v6l6 3-1 5-7 3-7-1-5-3-3-9 1-6 5-8 8-5 6-2 8-1h20l5 2 4 8 8 27 8 28 3 12h2l1-14 6-37 1-14z" fill="#84179A"/>
<path transform="translate(827,827)" d="m0 0h9l10 3 5 3 7 10 3 9 1 14-3 21-6 14-7 9-9 8-9 4-3 1h-19l-8-3-5-4-6-10-3-13v-12l3-16 5-13 6-9 6-7 10-6 6-2zm1 7-8 3-7 8-4 8-5 16-2 14v18l3 9 5 5 2 1h10l8-6 6-9 6-20 2-14v-16l-3-9-3-5-7-3z" fill="#831699"/>
<path transform="translate(577,827)" d="m0 0h7l7 3 1 1-1 16-9 52v11l1 1h8l10-9 3-1-1 6-4 7h-2l-2 4-9 5h-12l-5-3-4-5-1-2v-15l1-9h-21l-7 18-6 11-6 5-5 1-7-3-2-4v-8l1-1 10-1 5-5 7-12-8 1-2-1v-6l4-5 10-1 5-12 7-19 6-10 7-6 7-3zm-7 8-5 3-6 8-6 15-6 16v3l19 2 2-3 5-28 2-10v-6z" fill="#831699"/>
<path transform="translate(890,407)" d="m0 0 3 1 1 11-13 8-4 2-4 1-2 2-5 2-4 2-7 3-4 2-6 2-38 17-18 8-23 10-7 2-3-8-1-4 16-8 25-11 58-26z" fill="#080209"/>
<path transform="translate(501,947)" d="m0 0h10l8 10 13 17 8 11 1-38h10v56l-7 1-5-3-26-34v-2h-2v38l-1 1h-8l-1-1z" fill="#84179A"/>
<path transform="translate(1009,947)" d="m0 0h8l5 5 11 14 12 16 2 3 1-37 1-1h8l1 1v55l-6 1-6-3-13-17-10-13-4-5-1 37-1 1h-8l-1-1v-55z" fill="#84179A"/>
<path transform="translate(1240,947)" d="m0 0h28l11 4 5 7 1 3v12l-5 8-4 4 1 4 6 9 2 5-1 1-8-1-3-3-7-12-17-1v16l-5 1-4-1-1-10v-45zm10 8-1 1v21l1 1h15l8-3 3-4v-9l-4-5-9-2z" fill="#831699"/>
<path transform="translate(932,947)" d="m0 0h41v8l-31 1v15h28v8l-2 1h-26v15h30l2 1 1 6-1 1-27 1h-14l-1-1z" fill="#84179A"/>
<path transform="translate(1164,947)" d="m0 0h41v8l-30 1v14l27 1v8l-3 1h-24l-1 15h30l2 1 1 6-1 1-28 1h-13l-1-1z" fill="#831699"/>
<path transform="translate(588,947)" d="m0 0h41v8l-30 1-1 15h28v8l-8 1h-20v15h30l2 1v7l-26 1h-15l-1-1z" fill="#84179A"/>
<path transform="translate(675,947)" d="m0 0h17l9 4 2 3-3 6-5-1-6-2h-12l-3 2 1 6 10 5 12 5 5 4 2 5v7l-3 6-6 5-8 2h-8l-12-3-6-4-1-1v-6l1-2 5 1 8 4 4 1h9l4-2 1-5-2-4-20-7-6-5-2-6 1-9 4-5z" fill="#831699"/>
<path transform="translate(747,947)" d="m0 0h16l9 3 3 4-3 6-5-1-6-2h-13l-2 2 1 6 10 5 12 5 5 4 2 5v7l-4 7-5 4-8 2h-8l-12-3-6-4-1-1v-6l4-2 10 5 4 1h9l5-3-1-6-3-3-15-5-8-5-2-3-1-9 3-7 7-5z" fill="#831699"/>
<path transform="translate(871,947)" d="m0 0h14l11 4 3 3-1 5-2 3-5-2-9-4h-7l-7 3-6 5-2 5v13l4 6 6 5 2 1h13l9-5 5 2v5l-9 6-9 2-13-1-8-4-7-7-4-10v-14l4-9 4-5 10-6z" fill="#84179A"/>
<path transform="translate(316,947)" d="m0 0h39v8l-28 1-1 16h26v8h-26v23l-2 1h-7l-1-2z" fill="#801695"/>
<path transform="translate(1088,947)" d="m0 0h45l1 6-2 2-16 1-1 47-1 1h-7l-2-4v-45h-17l-1-4z" fill="#84179A"/>
<path transform="translate(426,947)" d="m0 0h45l1 1v6l-1 1-17 1-1 47-1 1h-7l-1-1-1-47-17-1-1-1v-6z" fill="#84179A"/>
<path transform="translate(385,947)" d="m0 0h10l1 3-1 53-4 1-6-1z" fill="#84179A"/>
<path transform="translate(842,395)" d="m0 0m-2 1 2 1-19 10-27 12-3-1 27-13z" fill="#010101"/>
<path transform="translate(360,623)" d="m0 0 7 1-3 2-17 7-9 4v-2h2v-3z" fill="#4C0D59"/>
<path transform="translate(845,395)" d="m0 0 3 1-4 3-16 7-1-2 17-8z" fill="#84179A"/>
<path transform="translate(349,628)" d="m0 0h2v2h-2v2l-10 5-1-2h2v-3z" fill="#440C4F"/>
</svg>
